# xmcd CD database file
#
# Track frame offsets:
#	150
#	12003
#	31483
#	44671
#	60494
#	77415
#	97484
#	114710
#	128077
#	151081
#
# Disc length: 2199 seconds
#
# Revision: 1
# Processed by: cddbd v1.5.2PL0 Copyright (c) Steve Scherf et al.
# Submitted via: CDex 1.78
#
DISCID=7a08950a
DTITLE=Lee Sims - Deep In The Heart Of Me
DYEAR=2014
DGENRE=Country
TTITLE0=Lee Sims - Blues On Parade
TTITLE1=Lee Sims - Uncle Joe
TTITLE2=Lee Sims - Rag Top Baby
TTITLE3=Lee Sims - Summer Fall
TTITLE4=Lee Sims - Why You Been Gone So Long
TTITLE5=Lee Sims - The Waltz
TTITLE6=Lee Sims - Texas Girl
TTITLE7=Lee Sims - Pain In The Memory
TTITLE8=Lee Sims - One Heart
TTITLE9=Lee Sims - Tonight We Ride
EXTD=YEAR: 2014
EXTT0=
EXTT1=
EXTT2=
EXTT3=
EXTT4=
EXTT5=
EXTT6=
EXTT7=
EXTT8=
EXTT9=
PLAYORDER=
